<svg width="240" height="240" viewBox="0 0 240 240" fill="none" xmlns="http://www.w3.org/2000/svg">
<g clip-path="url(#clip0_7_6367)">
<path fill-rule="evenodd" clip-rule="evenodd" d="M203.435 116.146C203.773 115.536 204.25 114.673 204.413 113.836C204.917 111.273 205.231 109.421 205.354 108.28C205.45 107.406 205.629 104.981 205.892 101.004C205.926 100.482 206.03 99.9379 206.132 99.3999C206.29 98.5753 206.444 97.7662 206.338 97.0789C206.183 96.0492 205.88 93.9343 205.431 90.7343C205.237 89.3593 205.12 88.6131 205.079 88.4959C204.794 87.6816 204.236 87.1002 203.406 86.7517C200.307 85.44 195.892 84.827 193.112 86.8943C190.901 88.5418 188.64 90.1482 186.33 91.7133C184.796 92.7537 183.434 93.8253 182.139 94.8444L182.138 94.8452L182.137 94.8455C181.114 95.6508 180.132 96.4232 179.14 97.1216C177.286 98.4238 175.732 99.6769 174.478 100.881C173.293 102.015 171.811 103.365 170.034 104.93C169.356 105.526 168.23 106.652 166.655 108.309C165.987 109.012 165.209 109.654 164.322 110.234C163.073 111.051 162.186 111.759 161.66 112.358C160.466 113.714 159.286 114.815 158.12 115.661C158.087 115.685 158.061 115.717 158.044 115.754C158.028 115.791 158.021 115.831 158.025 115.871C158.029 115.912 158.043 115.95 158.066 115.984C158.089 116.017 158.121 116.043 158.158 116.06C160.451 117.118 161.63 117.665 161.693 117.7C162.907 118.346 164.185 119.297 165.529 120.551C167.452 122.338 167.653 123.975 167.931 126.226C167.962 126.477 167.994 126.737 168.029 127.005C168.124 127.724 168.019 128.304 167.715 128.745C166.855 129.994 164.602 132.109 163.024 130.85C161.392 129.546 163.421 128.225 164.478 127.536L164.564 127.48C164.627 127.439 164.68 127.383 164.718 127.317C164.756 127.251 164.778 127.177 164.783 127.1C164.897 125.05 164.147 123.396 162.535 122.139C160.989 120.932 159.544 120.078 158.2 119.577C156.841 119.07 155.87 118.516 155.287 117.914C155.154 117.774 155 117.746 154.826 117.828C153.042 118.696 151.777 119.27 151.029 119.549C149.074 120.28 144.401 121.949 137.009 124.553C135.811 124.974 134.576 125.332 133.302 125.627C131.518 126.039 130.259 126.365 129.524 126.606C127.886 127.145 126.446 127.447 125.204 127.514C121.684 127.707 118.848 127.648 116.697 127.338C110.12 126.387 103.968 124.887 98.2432 122.837C97.6484 122.624 97.0189 122.469 96.3904 122.315C95.3114 122.051 94.2353 121.788 93.3434 121.226C93.2121 121.142 93.1016 121.028 93.0202 120.894C92.937 120.758 92.8582 120.623 92.7796 120.489C92.4902 119.994 92.205 119.506 91.7228 118.997C91.0416 118.278 90.0879 117.316 88.8618 116.113C87.9715 115.235 87.0511 114.202 86.1006 113.014C83.8162 110.159 81.082 107.352 77.8978 104.593C76.3295 103.233 74.1624 101.996 71.3964 100.881C65.6396 98.5616 61.9929 97.147 60.4562 96.6369C59.8891 96.4499 59.417 96.3612 59.04 96.3707C58.6408 96.3834 58.4744 96.5862 58.541 96.9791C59.0479 99.989 59.5422 102.126 60.0238 103.39C60.1125 103.631 60.1236 103.864 60.057 104.089C59.9961 104.298 59.9186 104.485 59.843 104.667C59.7003 105.011 59.5642 105.34 59.558 105.771C59.5137 109.022 59.5089 110.875 59.5438 111.332C59.5849 111.914 59.764 112.605 60.0808 113.404C60.2246 113.763 60.2882 114.143 60.3512 114.518C60.4631 115.185 60.5729 115.839 61.1263 116.35C61.2592 116.474 61.3959 116.596 61.5323 116.717C62.1911 117.303 62.8413 117.88 62.9988 118.684C63.0694 119.042 63.1773 119.376 63.2871 119.716C63.4952 120.361 63.7097 121.025 63.6879 121.906C63.6626 123.024 63.6546 124.139 63.6642 125.252C63.68 126.503 63.8907 127.518 64.2962 128.298C64.7841 129.229 65.4463 130.072 66.2828 130.826C66.5077 131.029 67.1952 131.991 68.3453 133.711C68.697 134.24 69.1533 135.075 69.7141 136.215C70.1354 137.065 70.5885 137.903 71.0733 138.73C71.3677 139.233 71.8446 139.601 72.3245 139.972C72.6114 140.194 72.8994 140.416 73.1501 140.669C79.417 146.929 83.5374 151.038 85.5113 152.996C86.3287 153.809 87.5026 154.617 88.5196 155.282C88.8903 155.523 89.4495 156.03 90.1972 156.803C90.8476 157.474 91.6638 157.838 92.4758 158.2C93.3133 158.574 94.1463 158.945 94.7881 159.65C96.499 161.532 98.2749 163.206 100.116 164.673C101.909 166.105 103.507 167.558 104.911 169.031C105.678 169.836 106.928 171.105 108.661 172.838C109.76 173.937 110.929 174.928 112.168 175.808C114.62 177.551 117.256 179.116 120.076 180.504C121.122 181.017 122.685 181.483 124.767 181.901C125.499 182.05 126.276 182.362 127.1 182.837C127.902 183.303 129.207 183.766 131.016 184.225C131.387 184.317 131.899 184.322 132.551 184.239C132.947 184.189 133.465 184.185 134.105 184.23C135.531 184.325 136.306 184.372 136.429 184.372C141.061 184.398 145.693 184.406 150.326 184.396C151.376 184.396 151.818 184.619 152.131 185.565C152.211 185.806 152.35 185.85 152.55 185.698C153.64 184.871 154.801 184.295 156.033 183.968C156.648 183.807 157.194 183.599 157.673 183.346C158.478 182.918 159.011 182.661 159.274 182.576C161.464 181.866 163.628 180.699 165.766 179.073C166.768 178.316 167.542 177.85 168.09 177.676C168.99 177.391 169.874 177.136 170.742 176.911C171.249 176.778 171.675 176.456 172.021 175.946C172.867 174.698 173.636 173.383 174.33 172.002C175.076 170.528 175.794 169.354 176.897 168.456C178.924 166.809 179.975 165.96 180.048 165.909C180.545 165.567 181.009 165.012 181.44 164.246C181.966 163.311 182.937 162.375 184.353 161.437C184.569 161.294 184.838 160.895 185.161 160.239C185.345 159.869 185.431 159.408 185.418 158.856C185.358 156.461 185.613 154.132 186.183 151.87C186.421 150.923 186.56 150.281 186.601 149.945C186.76 148.71 186.844 148.051 186.853 147.968C186.932 147.081 187.278 146.169 187.889 145.231C188.802 143.831 190.001 142.509 191.487 141.267C191.808 140.998 192.039 140.637 192.147 140.231C192.863 137.497 194.063 134.943 195.745 132.57C196.086 132.088 196.592 131.603 197.007 131.205C197.176 131.043 197.33 130.896 197.451 130.769C197.565 130.649 197.635 130.513 197.66 130.36C197.713 130.07 197.72 129.76 197.726 129.451C197.734 129.074 197.742 128.697 197.836 128.36C198.43 126.207 200.554 123.313 202.071 122.048C202.132 121.997 202.181 121.932 202.212 121.858C202.244 121.785 202.257 121.705 202.251 121.625C202.153 120.364 202.465 119.216 203.187 118.18C203.434 117.823 203.434 117.291 203.206 116.901C203.178 116.854 203.168 116.788 203.177 116.712C203.186 116.636 203.214 116.551 203.259 116.469C203.31 116.372 203.37 116.264 203.435 116.146ZM203.658 206.438C205.733 207.376 207.908 207.767 210.183 207.612H210.184C210.677 207.58 211.072 207.362 211.366 206.956L211.485 206.614V205.991C211.425 205.903 211.377 205.787 211.343 205.644C211.175 205.278 210.946 205.07 210.654 205.019L254.733 209.822L254.02 213.624V278.495L-21.6239 268.515L-26.1245 212.402C-22.8548 212.501 -19.6516 212.518 -16.515 212.455C-15.4631 212.436 -14.7122 212.307 -14.2623 212.07C-13.0108 211.411 -11.7482 210.768 -10.4746 210.14C-9.82241 209.821 -9.29195 209.317 -8.76189 208.813L-8.76 208.812L-8.75818 208.81C-8.70618 208.761 -8.65417 208.711 -8.60205 208.662C-8.13631 208.222 -7.65314 207.878 -7.15255 207.631C-6.2876 207.21 -5.68562 206.947 -5.34661 206.842C-3.29987 206.212 -1.1676 205.564 1.05023 204.898C1.93419 204.632 2.9227 204.273 4.01577 203.819C5.37814 203.255 6.37775 202.912 7.01458 202.788C7.89854 202.62 9.58092 202.611 12.0617 202.76C12.2106 202.766 12.3215 202.834 12.3943 202.964L12.9504 203.924C13.0359 204.07 13.1611 204.162 13.3258 204.2C14.6042 204.49 14.9987 203.743 15.0272 202.603C15.0336 202.441 15.1175 202.36 15.2791 202.36H17.7457C18.1608 202.36 18.4949 202.196 18.7485 201.866C19.0748 201.442 19.2332 201.204 19.2236 201.153C19.1128 200.304 18.7341 199.846 18.0878 199.78C16.32 199.596 14.7975 199.663 13.5207 199.979C13.4879 199.987 13.4537 199.983 13.423 199.97C13.3923 199.956 13.3667 199.933 13.3503 199.903C13.3338 199.874 13.327 199.84 13.3312 199.807C13.3354 199.774 13.3502 199.742 13.3734 199.718L14.8466 198.245C15.1287 197.963 15.4708 197.827 15.8732 197.836C16.3992 197.852 16.9852 197.548 17.6316 196.924C17.9389 196.628 18.3028 196.301 18.6877 195.955L18.6893 195.954L18.6897 195.953C19.4296 195.289 20.2466 194.555 20.887 193.839C21.7298 192.892 22.3714 192.242 22.8118 191.891C23.6038 191.26 24.1917 190.585 24.575 189.866C25.0134 189.046 25.3584 188.285 25.6936 187.547C26.0634 186.732 26.4213 185.943 26.8799 185.128C29.1389 181.107 30.7246 178.327 31.6371 176.787C32.2106 175.818 32.5971 175.005 32.7967 174.349C33.1484 173.196 33.3401 172.306 33.3718 171.678C33.3813 171.514 33.4035 170.589 33.4383 168.903C33.4755 167.067 33.9775 165.241 34.4741 163.434V163.433C34.6127 162.929 34.7508 162.427 34.8783 161.926C35.0336 161.318 35.333 160.756 35.7766 160.239C36.6511 159.216 37.4336 158.131 38.1242 156.984C38.1813 156.889 38.8355 155.832 40.0871 153.814C41.3006 151.853 42.1925 149.727 42.7627 147.436C43.3868 144.92 43.7671 143.198 43.9034 142.27C44.0523 141.244 44.255 140.147 44.5117 138.981C45.0985 136.328 45.1461 134.79 45.2396 131.766C45.2582 131.166 45.2785 130.508 45.3053 129.771C45.3529 128.431 45.5587 126.983 45.9231 125.427C46.148 124.474 46.373 122.788 46.5979 120.371C46.8039 118.185 47.5152 115.766 48.7318 113.114C49.5113 111.419 51.1555 108.436 53.6648 104.165C53.9486 103.682 54.1923 103.17 54.439 102.651C54.7873 101.919 55.1417 101.174 55.6229 100.482C55.6469 100.447 55.6805 100.421 55.7195 100.405C55.7585 100.39 55.801 100.386 55.842 100.395C55.883 100.404 55.9206 100.424 55.9501 100.454C55.9796 100.484 55.9996 100.521 56.0079 100.562C56.331 102.197 56.5291 103.149 56.602 103.419C56.8649 104.382 56.9853 105.328 56.9632 106.256C56.9345 107.463 56.9426 109.629 56.9868 112.753C56.99 112.851 57.15 113.446 57.4669 114.539C57.5461 114.802 57.6126 115.203 57.6665 115.742C57.7701 116.802 58.7089 117.752 59.7544 118.809C59.9076 118.964 60.0631 119.122 60.2186 119.282C60.5291 119.602 60.7666 120.307 60.9314 121.397C61.017 121.987 61.0549 122.723 61.0454 123.607C61.0359 124.532 61.0248 125.37 61.0122 126.121C60.9932 127.094 61.1152 127.93 61.3782 128.631C61.8058 129.781 62.3951 130.753 63.146 131.549C64.5623 133.047 65.4256 134.101 65.7361 134.709C66.7246 136.632 67.4708 138.05 67.9745 138.962C68.4625 139.846 69.1105 140.672 69.9184 141.438C74.5822 145.877 78.7516 149.996 82.4268 153.795C83.558 154.964 85.5064 156.659 88.2724 158.88C89.169 159.602 90.1892 160.238 91.333 160.786C92.1029 161.156 92.7365 161.587 93.234 162.078C94.6597 163.485 95.6149 164.39 96.0997 164.792C99.3599 167.507 102.677 170.623 106.051 174.14C107.69 175.845 109.017 177.044 110.034 177.738C112.657 179.534 115.132 181.057 117.457 182.305C118.614 182.926 120.163 183.517 122.105 184.078C124.33 184.718 126.768 185.605 129.419 186.739C130.316 187.122 131.347 187.279 132.513 187.21C133.98 187.118 134.728 187.072 134.756 187.072C140.003 187.031 143.742 187.024 145.972 187.053C146.137 187.053 146.221 187.137 146.224 187.305C146.243 188.578 146.235 189.95 146.2 191.42C146.172 192.751 146.444 193.727 147.018 194.348C147.661 195.043 147.867 195.624 148.183 196.513C148.265 196.741 148.353 196.99 148.458 197.266C148.848 198.295 149.283 198.967 149.765 199.281C149.892 199.364 150.013 199.445 150.13 199.523C150.955 200.074 151.587 200.496 152.802 200.521C153.495 200.534 154.577 200.526 156.048 200.497C156.122 200.496 156.195 200.514 156.26 200.549C156.326 200.583 156.382 200.635 156.423 200.697C156.467 200.767 156.502 200.84 156.528 200.916C156.817 201.828 157.725 202.427 158.5 202.351C159.789 202.221 161.228 202.189 162.815 202.256C167.204 202.434 171.521 202.41 175.453 202.389H175.455H175.457C177.101 202.381 178.679 202.372 180.166 202.379C182.463 202.392 184.331 202.471 185.77 202.617C189.008 202.95 190.875 203.107 191.373 203.088C192.114 203.059 192.944 203.268 193.863 203.715C194.883 204.212 196.25 204.645 197.964 205.012C198.396 205.105 198.83 205.313 199.232 205.505C199.444 205.606 199.648 205.703 199.837 205.777C200.258 205.945 200.754 206.04 201.324 206.063C201.895 206.085 202.295 206.105 202.527 206.124C202.891 206.156 203.268 206.261 203.658 206.438ZM210.549 205.008L210.654 205.019C210.62 205.013 210.585 205.009 210.549 205.008Z" fill="white"/>
<path fill-rule="evenodd" clip-rule="evenodd" d="M137.099 150.535C136.903 147.835 136.947 145.142 137.232 142.455C137.049 142.208 136.838 141.866 136.6 141.429C135.897 140.141 134.528 140.759 134.115 141.961C134.02 145.825 133.968 149.769 134.866 153.571C135.48 156.154 135.899 158.978 136.12 162.045C136.19 162.964 136.656 163.344 137.518 163.186C137.533 163.186 137.551 163.184 137.57 163.181C138.419 163.035 138.806 162.546 138.73 161.712C138.47 158.953 138.314 157.289 138.264 156.722C138.175 155.734 138.004 154.699 137.751 153.619C137.339 151.879 137.122 150.851 137.099 150.535ZM143.824 150.492C143.419 148.806 143.267 147.118 143.368 145.426C143.14 145.049 142.834 144.653 142.451 144.238C142.083 143.845 141.67 143.587 141.21 143.463C140.631 143.308 140.032 143.249 139.414 143.287C139.357 143.601 139.327 143.919 139.324 144.242C139.311 144.835 139.601 145.304 139.894 145.778C140.156 146.203 140.42 146.631 140.474 147.156C140.642 148.835 140.917 150.326 141.301 151.628C141.655 152.831 141.691 154.098 141.728 155.39C141.74 155.813 141.753 156.238 141.776 156.665C141.817 157.438 142.224 157.804 142.997 157.763C143.07 157.757 143.121 157.754 143.149 157.754C143.919 157.712 144.317 157.307 144.342 156.537C144.38 155.447 144.382 154.433 144.347 153.495C144.322 152.827 144.147 151.826 143.824 150.492Z" fill="#BBDEF9"/>
<path fill-rule="evenodd" clip-rule="evenodd" d="M210.183 207.612C207.908 207.767 205.733 207.376 203.658 206.438C203.268 206.261 202.891 206.156 202.527 206.124C202.295 206.105 201.895 206.085 201.324 206.063C200.754 206.04 200.258 205.945 199.837 205.777C199.648 205.703 199.444 205.606 199.232 205.505C198.83 205.313 198.396 205.105 197.964 205.012C196.25 204.645 194.883 204.212 193.863 203.715C192.944 203.268 192.114 203.059 191.373 203.088C190.875 203.107 189.008 202.95 185.77 202.617C184.331 202.471 182.463 202.392 180.166 202.379C178.679 202.372 177.101 202.381 175.455 202.389H175.454C171.521 202.41 167.204 202.434 162.815 202.256C161.228 202.189 159.789 202.221 158.5 202.351C157.725 202.427 156.817 201.828 156.528 200.916C156.502 200.84 156.467 200.767 156.423 200.697C156.382 200.635 156.326 200.583 156.26 200.549C156.195 200.514 156.122 200.496 156.048 200.497C154.577 200.526 153.495 200.534 152.802 200.521C151.587 200.496 150.955 200.074 150.13 199.523C150.013 199.445 149.892 199.364 149.765 199.281C149.283 198.967 148.848 198.295 148.458 197.266C148.353 196.99 148.265 196.741 148.183 196.513C147.867 195.625 147.661 195.043 147.018 194.348C146.444 193.727 146.172 192.751 146.2 191.42C146.235 189.95 146.243 188.578 146.224 187.305C146.221 187.137 146.137 187.053 145.972 187.053C143.742 187.024 140.003 187.031 134.756 187.072C134.728 187.072 133.98 187.118 132.513 187.21C131.347 187.279 130.316 187.122 129.419 186.739C126.768 185.605 124.33 184.718 122.105 184.078C120.163 183.517 118.614 182.926 117.457 182.305C115.132 181.057 112.657 179.534 110.034 177.738C109.017 177.044 107.69 175.845 106.051 174.14C102.677 170.623 99.36 167.507 96.0998 164.792C95.615 164.39 94.6598 163.485 93.2341 162.078C92.7366 161.587 92.103 161.156 91.3331 160.786C90.1893 160.238 89.1691 159.602 88.2725 158.88C85.5065 156.659 83.558 154.964 82.4269 153.795C78.7517 149.996 74.5822 145.877 69.9184 141.438C69.1105 140.672 68.4626 139.846 67.9746 138.962C67.4709 138.05 66.7247 136.632 65.7362 134.709C65.4257 134.101 64.5624 133.047 63.1461 131.549C62.3952 130.753 61.8059 129.781 61.3782 128.631C61.1152 127.93 60.9933 127.094 61.0123 126.121C61.0249 125.37 61.036 124.532 61.0455 123.607C61.055 122.723 61.017 121.987 60.9315 121.397C60.7667 120.307 60.5291 119.602 60.2186 119.282C60.0633 119.122 59.9079 118.965 59.7549 118.81L59.7544 118.809C58.7089 117.752 57.7701 116.803 57.6665 115.742C57.6127 115.203 57.5461 114.802 57.4669 114.539C57.1501 113.446 56.9901 112.851 56.9869 112.753C56.9426 109.629 56.9346 107.463 56.9632 106.256C56.9853 105.328 56.8649 104.382 56.602 103.419C56.5291 103.149 56.3311 102.197 56.0079 100.562C55.9997 100.521 55.9796 100.484 55.9502 100.454C55.9207 100.424 55.8831 100.404 55.8421 100.395C55.8011 100.386 55.7585 100.39 55.7195 100.405C55.6806 100.421 55.647 100.447 55.623 100.482C55.1417 101.174 54.7874 101.919 54.4391 102.651C54.1924 103.17 53.9486 103.682 53.6649 104.165C51.1556 108.436 49.5113 111.419 48.7319 113.114C47.5152 115.766 46.804 118.185 46.598 120.371C46.3731 122.788 46.1481 124.474 45.9232 125.427C45.5588 126.983 45.3529 128.431 45.3053 129.771C45.2785 130.508 45.2582 131.166 45.2396 131.766C45.1461 134.79 45.0986 136.328 44.5117 138.981C44.255 140.147 44.0523 141.244 43.9034 142.27C43.7671 143.198 43.3869 144.92 42.7628 147.436C42.1925 149.727 41.3006 151.853 40.0871 153.814C38.8356 155.832 38.1814 156.889 38.1243 156.984C37.4337 158.131 36.6511 159.216 35.7766 160.239C35.3331 160.756 35.0337 161.318 34.8784 161.926C34.7509 162.427 34.6127 162.929 34.4742 163.434C33.9776 165.241 33.4755 167.067 33.4384 168.903C33.4036 170.589 33.3814 171.514 33.3719 171.678C33.3402 172.306 33.1485 173.196 32.7968 174.349C32.5972 175.005 32.2107 175.818 31.6372 176.787C30.7247 178.327 29.139 181.107 26.88 185.128C26.4214 185.943 26.0634 186.732 25.6937 187.547C25.3584 188.286 25.0134 189.046 24.575 189.866C24.1917 190.585 23.6039 191.26 22.8119 191.891C22.3715 192.242 21.7299 192.892 20.8871 193.839C20.2467 194.555 19.4296 195.289 18.6897 195.954C18.3042 196.3 17.9393 196.628 17.6317 196.924C16.9853 197.548 16.3992 197.852 15.8733 197.836C15.4709 197.827 15.1287 197.963 14.8467 198.245L13.3735 199.718C13.3503 199.742 13.3355 199.774 13.3313 199.807C13.3271 199.84 13.3338 199.874 13.3503 199.903C13.3668 199.933 13.3923 199.956 13.423 199.97C13.4537 199.983 13.488 199.987 13.5208 199.979C14.7976 199.663 16.32 199.596 18.0879 199.78C18.7342 199.846 19.1129 200.304 19.2237 201.153C19.2333 201.204 19.0748 201.442 18.7485 201.866C18.495 202.196 18.1608 202.36 17.7457 202.36H15.2792C15.1176 202.36 15.0337 202.441 15.0273 202.603C14.9988 203.743 14.6043 204.49 13.3259 204.2C13.1612 204.162 13.036 204.07 12.9505 203.924L12.3944 202.964C12.3216 202.834 12.2107 202.766 12.0618 202.76C9.58094 202.611 7.89854 202.62 7.01458 202.788C6.37775 202.912 5.37814 203.255 4.01577 203.819C2.9227 204.273 1.9342 204.632 1.05023 204.898C-1.1676 205.564 -3.29987 206.212 -5.34661 206.842C-5.68562 206.947 -6.2876 207.21 -7.15255 207.631C-7.65313 207.878 -8.13631 208.222 -8.60205 208.662C-8.62987 208.688 -8.65766 208.715 -8.68544 208.741C-8.71092 208.765 -8.73638 208.789 -8.76185 208.813C-9.29192 209.317 -9.82239 209.821 -10.4745 210.14C-11.7481 210.768 -13.0107 211.411 -14.2622 212.07C-14.7121 212.307 -15.463 212.436 -16.5149 212.455C-19.6515 212.518 -22.8547 212.501 -26.1244 212.402C-26.9101 212.38 -27.3347 211.976 -27.398 211.191C-27.4012 211.124 -27.4044 211.084 -27.4075 211.072C-27.4134 210.908 -27.3839 210.746 -27.321 210.593C-27.2581 210.441 -27.1629 210.302 -27.0413 210.185C-26.9196 210.067 -26.774 209.974 -26.6132 209.911C-26.4524 209.848 -26.2796 209.816 -26.1054 209.817C-23.8622 209.83 -21.1897 209.855 -18.0879 209.893C-17.7299 209.899 -17.082 209.861 -16.1442 209.779C-15.24 209.704 -14.368 209.199 -13.4757 208.682C-13.1815 208.512 -12.8851 208.34 -12.5846 208.182C-12.0174 207.884 -11.5026 207.493 -11.04 207.008C-9.68562 205.602 -8.54978 205.027 -6.59651 204.328C-6.04522 204.132 -5.00126 203.823 -3.46463 203.401C-0.755706 202.657 1.85656 201.736 4.3722 200.64C5.40191 200.193 7.23478 200.002 9.87082 200.065C10.0261 200.068 10.137 200 10.2036 199.861C11.0337 198.137 12.3437 196.702 14.1338 195.555C14.381 195.396 14.8293 195.267 15.4788 195.165C15.634 195.143 15.7671 195.078 15.878 194.97C17.4337 193.484 18.3414 192.596 18.6012 192.304C19.7735 190.98 20.6384 190.063 21.196 189.553C22.0641 188.76 22.6265 187.818 22.8832 186.725C23.0891 185.85 23.3045 185.209 23.5295 184.8C24.6638 182.756 25.6554 180.987 26.5045 179.492C26.8082 178.952 26.9436 178.513 27.0753 178.086C27.1559 177.825 27.235 177.568 27.3505 177.296C27.4139 177.147 27.5073 177.023 27.6309 176.925C27.7772 176.809 27.9308 176.719 28.0835 176.63C28.3923 176.449 28.6978 176.271 28.9331 175.88C29.7315 174.565 30.2986 173.099 30.6344 171.484C30.8055 170.67 30.7969 169.752 30.7884 168.844C30.781 168.062 30.7738 167.286 30.8816 166.589C31.0622 165.419 31.4851 163.596 32.1505 161.118C32.3342 160.431 32.7287 159.625 33.3339 158.699C33.8186 157.958 34.2384 157.15 34.5933 156.276C34.7358 155.927 35.1889 155.469 35.9525 154.902C38.0626 153.334 39.3457 151.333 39.9065 148.757C40.0105 148.28 40.0977 147.841 40.1815 147.42C40.3657 146.493 40.533 145.651 40.8237 144.684C41.1453 143.624 41.3064 142.522 41.4624 141.455V141.454C41.5853 140.614 41.7051 139.794 41.8978 139.034C42.3699 137.152 42.6772 134.513 42.8198 131.116C43.0257 126.246 43.1176 123.571 43.0954 123.089C43.0416 121.825 43.1921 120.659 43.5469 119.591C43.7291 119.043 43.9236 118.315 44.139 117.51C44.5526 115.963 45.0431 114.127 45.6713 112.724C47.1667 109.362 48.895 106.129 50.8562 103.024C51.2206 102.448 51.5786 101.793 51.9303 101.061C52.415 100.051 52.7746 99.3917 53.0091 99.0844C53.3671 98.6123 53.5731 98.0294 53.6269 97.3355C53.6618 96.8191 53.8234 96.1616 54.1117 95.3632C54.381 94.6187 54.804 94.1466 55.3806 93.947C56.442 93.5731 57.1849 93.3909 57.6095 93.4004C58.2748 93.4099 59.1414 93.4131 60.2091 93.4099C60.8174 93.4068 61.6459 93.6064 62.6946 94.0088C68.0776 96.0713 72.2741 97.7759 75.284 99.1224C76.762 99.783 78.2828 100.767 79.6325 101.884C82.9148 104.596 86.1576 107.924 89.3608 111.869C90.438 113.193 92.1679 114.981 94.5505 117.234C95.6103 118.237 96.2329 118.741 97.6776 119.268C103.225 121.293 109.049 122.842 115.148 123.916C117.961 124.414 120.737 124.597 123.474 124.467C124.947 124.398 126.76 124.081 128.911 123.517C129.601 123.337 130.225 123.178 130.807 123.03C132.716 122.545 134.173 122.175 136.002 121.545C140.874 119.859 143.883 118.783 145.027 118.318C145.055 118.305 146.281 117.876 148.705 117.03C151.195 116.162 153.559 114.988 155.796 113.508C156.55 113.011 157.248 112.283 157.931 111.571C158.311 111.175 158.686 110.783 159.065 110.438C166.638 103.56 170.647 99.9161 171.094 99.5074C173.451 97.3339 175.892 95.3204 178.417 93.467C181.712 91.0495 186.11 87.9193 191.61 84.0761C192.206 83.661 192.99 83.2761 193.963 82.9212C194.672 82.6646 195.518 82.5173 196.501 82.4793C199.267 82.3747 201.888 82.7866 204.366 83.7149C205.472 84.1299 206.422 84.7763 207.217 85.6539C207.661 86.1418 207.975 86.9196 208.158 87.9874C208.497 89.9707 208.716 91.4218 208.814 92.3406C208.862 92.7747 209.074 93.3608 209.451 94.0991C209.86 94.8943 209.99 95.848 209.841 96.96C209.785 97.3687 209.724 97.789 209.662 98.2198L209.661 98.2256C209.367 100.248 209.04 102.502 209.033 104.882V104.918C209.014 109.213 208.999 112.678 207.103 116.569C206.896 116.994 206.55 117.276 206.202 117.559C206.111 117.633 206.019 117.708 205.93 117.785C205.803 117.896 205.706 118.094 205.64 118.379C205.101 120.734 204.827 121.941 204.817 122.001C204.703 122.688 204.396 123.308 203.895 123.859C203.073 124.772 201.752 126.673 201.267 127.485C200.586 128.613 200.287 129.863 200.369 131.235C200.379 131.396 200.33 131.537 200.222 131.658C199.928 131.994 199.62 132.296 199.316 132.593C198.666 133.231 198.036 133.847 197.622 134.728C197.074 135.888 196.448 136.914 195.745 137.808C195.644 137.934 195.588 138.078 195.579 138.24C195.515 139.045 195.29 139.965 194.904 141.001C194.481 142.134 193.264 143.314 192.122 144.42C191.865 144.669 191.612 144.915 191.373 145.155C191.135 145.396 190.753 145.95 190.227 146.818C189.904 147.351 189.682 147.973 189.562 148.686C189.47 149.247 189.12 151.042 188.512 154.071C188.138 155.946 187.983 158.116 188.046 160.581C188.052 160.743 188.016 160.894 187.937 161.033C187.357 162.063 186.818 162.771 186.321 163.157C186.141 163.297 185.966 163.427 185.797 163.553C185.003 164.146 184.352 164.633 183.94 165.472C183.594 166.175 183.373 166.565 183.274 166.641C181.678 167.899 180.293 169.088 179.121 170.21C178.256 171.042 177.491 171.902 177.001 172.952C175.965 175.181 174.658 177.263 173.061 178.793C172.567 179.268 171.994 179.566 171.341 179.686C170.048 179.924 169.05 180.228 167.924 180.941C164.588 183.07 162.533 184.318 161.76 184.686C161.529 184.794 161.272 184.887 161.003 184.984C160.585 185.134 160.138 185.295 159.716 185.541C158.509 186.235 157.199 186.646 155.786 186.772C155.377 186.807 154.706 187.314 153.771 188.293C153.662 188.405 153.526 188.484 153.377 188.521C152.233 188.784 151.458 188.366 151.053 187.267C150.992 187.108 150.877 187.029 150.706 187.029H149.076C148.892 187.029 148.797 187.122 148.79 187.309C148.762 188.301 148.77 189.638 148.814 191.32C148.836 192.174 149.204 192.648 149.586 193.141C149.796 193.411 150.01 193.687 150.173 194.034C150.874 195.533 151.33 196.535 151.542 197.042C151.646 197.288 151.821 197.497 152.045 197.642C152.268 197.786 152.53 197.861 152.797 197.855C153.804 197.83 154.991 197.822 156.356 197.831C157.069 197.838 158.099 198.058 159.446 198.492C159.645 198.556 159.847 198.623 160.051 198.69H160.053C161.497 199.166 163.06 199.681 164.554 199.69C168.889 199.709 174.224 199.71 180.561 199.694C182.62 199.688 184.542 199.756 186.326 199.899C186.373 199.902 188.288 200.097 192.071 200.483C193.421 200.619 194.603 200.887 195.617 201.286C197.372 201.977 199.16 202.579 200.982 203.092C201.489 203.235 202.006 203.325 202.531 203.363C202.629 203.371 202.722 203.378 202.81 203.385C203.526 203.439 203.952 203.471 204.599 203.772C206.11 204.482 208.093 204.894 210.549 205.008C210.567 205.008 210.585 205.01 210.603 205.012C210.62 205.014 210.637 205.016 210.654 205.019M210.654 205.019L254.733 209.822L254.02 213.624L210.183 207.612M203.259 116.469C203.31 116.372 203.37 116.264 203.435 116.146C203.773 115.536 204.25 114.673 204.413 113.836C204.917 111.273 205.231 109.421 205.354 108.28C205.45 107.406 205.629 104.981 205.892 101.004C205.926 100.482 206.03 99.9379 206.132 99.3998C206.29 98.5753 206.444 97.7662 206.338 97.0789C206.183 96.0492 205.88 93.9343 205.431 90.7343C205.237 89.3593 205.12 88.6131 205.079 88.4959C204.794 87.6816 204.236 87.1002 203.406 86.7517C200.307 85.44 195.892 84.827 193.112 86.8943C190.901 88.5418 188.64 90.1482 186.33 91.7133C184.795 92.754 183.433 93.8259 182.138 94.8452L182.137 94.8454C181.114 95.6507 180.132 96.4232 179.14 97.1216C177.286 98.4238 175.732 99.6769 174.478 100.881C173.293 102.015 171.811 103.365 170.034 104.93C169.356 105.526 168.23 106.652 166.655 108.309C165.987 109.012 165.209 109.654 164.322 110.234C163.073 111.051 162.186 111.759 161.66 112.358C160.466 113.714 159.286 114.815 158.12 115.661C158.087 115.685 158.061 115.717 158.044 115.754C158.028 115.791 158.021 115.831 158.025 115.871C158.029 115.912 158.043 115.95 158.066 115.984C158.089 116.017 158.121 116.043 158.158 116.06C160.451 117.118 161.63 117.665 161.693 117.7C162.907 118.346 164.185 119.297 165.529 120.551C167.452 122.338 167.653 123.975 167.931 126.225C167.962 126.477 167.994 126.737 168.029 127.005C168.124 127.724 168.019 128.304 167.715 128.745C166.855 129.994 164.602 132.109 163.024 130.85C161.392 129.546 163.421 128.225 164.478 127.536L164.564 127.48C164.627 127.439 164.68 127.383 164.718 127.317C164.756 127.251 164.778 127.177 164.783 127.1C164.897 125.05 164.147 123.396 162.535 122.139C160.989 120.932 159.544 120.078 158.2 119.577C156.841 119.07 155.87 118.516 155.287 117.914C155.154 117.774 155 117.746 154.826 117.828C153.042 118.696 151.777 119.27 151.029 119.549C149.074 120.28 144.401 121.949 137.009 124.553C135.811 124.974 134.576 125.332 133.302 125.627C131.518 126.039 130.259 126.365 129.524 126.606C127.886 127.145 126.446 127.447 125.204 127.514C121.684 127.707 118.848 127.648 116.697 127.338C110.12 126.387 103.968 124.887 98.2432 122.837C97.6484 122.623 97.0189 122.469 96.3904 122.315C95.3114 122.051 94.2353 121.788 93.3434 121.226C93.2121 121.142 93.1016 121.028 93.0202 120.894C92.937 120.758 92.8582 120.623 92.7796 120.489C92.4902 119.994 92.2049 119.506 91.7228 118.997C91.0416 118.278 90.0879 117.316 88.8618 116.113C87.9715 115.235 87.0511 114.202 86.1006 113.014C83.8162 110.159 81.082 107.352 77.8978 104.593C76.3295 103.233 74.1624 101.996 71.3964 100.881C65.6396 98.5616 61.9929 97.147 60.4562 96.6369C59.8891 96.4499 59.417 96.3612 59.04 96.3707C58.6408 96.3834 58.4744 96.5862 58.541 96.9791C59.0479 99.989 59.5422 102.126 60.0238 103.39C60.1125 103.631 60.1236 103.864 60.057 104.089C59.9961 104.298 59.9186 104.485 59.843 104.667C59.7003 105.011 59.5642 105.34 59.558 105.771C59.5137 109.022 59.5089 110.875 59.5438 111.332C59.5849 111.914 59.764 112.605 60.0808 113.404C60.2246 113.763 60.2882 114.143 60.3512 114.518C60.4631 115.185 60.5729 115.839 61.1263 116.35C61.2592 116.474 61.396 116.596 61.5324 116.717C62.1913 117.303 62.8413 117.88 62.9988 118.684C63.0694 119.042 63.1773 119.376 63.2871 119.716C63.4952 120.361 63.7097 121.025 63.6879 121.906C63.6626 123.024 63.6546 124.139 63.6642 125.252C63.68 126.503 63.8907 127.518 64.2962 128.298C64.7841 129.229 65.4463 130.072 66.2828 130.826C66.5077 131.029 67.1952 131.991 68.3453 133.711C68.697 134.24 69.1533 135.075 69.7141 136.215C70.1354 137.065 70.5885 137.903 71.0733 138.73C71.3677 139.233 71.8446 139.601 72.3245 139.972C72.6114 140.194 72.8994 140.416 73.1501 140.669C79.417 146.929 83.5374 151.038 85.5113 152.996C86.3287 153.809 87.5026 154.617 88.5196 155.282C88.8903 155.523 89.4495 156.03 90.1972 156.803C90.8476 157.474 91.6638 157.838 92.4758 158.2C93.3133 158.574 94.1463 158.945 94.7881 159.65C96.499 161.532 98.2749 163.206 100.116 164.673C101.909 166.105 103.507 167.558 104.911 169.031C105.678 169.836 106.928 171.105 108.661 172.838C109.76 173.937 110.929 174.928 112.168 175.808C114.62 177.551 117.256 179.116 120.076 180.504C121.122 181.017 122.685 181.483 124.767 181.901C125.499 182.05 126.276 182.362 127.1 182.837C127.902 183.303 129.207 183.766 131.016 184.225C131.387 184.317 131.899 184.322 132.551 184.239C132.947 184.189 133.465 184.185 134.105 184.23C135.531 184.325 136.306 184.372 136.429 184.372C141.061 184.398 145.693 184.406 150.326 184.396C151.376 184.396 151.818 184.619 152.131 185.565C152.211 185.806 152.35 185.85 152.55 185.698C153.64 184.871 154.801 184.295 156.033 183.968C156.648 183.807 157.194 183.599 157.673 183.346C158.478 182.918 159.011 182.661 159.274 182.576C161.464 181.866 163.628 180.699 165.766 179.073C166.768 178.316 167.542 177.85 168.09 177.676C168.99 177.391 169.874 177.136 170.742 176.911C171.249 176.778 171.675 176.456 172.021 175.946C172.867 174.698 173.636 173.383 174.33 172.002C175.076 170.528 175.794 169.354 176.897 168.456C178.924 166.809 179.975 165.96 180.048 165.909C180.545 165.567 181.009 165.012 181.44 164.246C181.966 163.311 182.937 162.375 184.353 161.437C184.569 161.294 184.838 160.895 185.161 160.239C185.345 159.869 185.431 159.408 185.418 158.856C185.358 156.461 185.613 154.132 186.183 151.87C186.421 150.923 186.56 150.281 186.601 149.945C186.76 148.71 186.844 148.051 186.853 147.968C186.932 147.081 187.278 146.169 187.889 145.231C188.802 143.831 190.001 142.509 191.487 141.267C191.808 140.998 192.039 140.637 192.147 140.231C192.863 137.497 194.063 134.943 195.745 132.57C196.086 132.088 196.592 131.602 197.007 131.205C197.176 131.043 197.33 130.896 197.451 130.769C197.565 130.649 197.635 130.513 197.66 130.36C197.713 130.07 197.72 129.76 197.726 129.451C197.734 129.074 197.742 128.697 197.836 128.36C198.43 126.207 200.554 123.313 202.071 122.048C202.132 121.997 202.181 121.932 202.212 121.858C202.244 121.785 202.257 121.705 202.251 121.625C202.153 120.364 202.465 119.216 203.187 118.18C203.434 117.823 203.434 117.291 203.206 116.901C203.178 116.854 203.168 116.788 203.177 116.712C203.186 116.636 203.214 116.551 203.259 116.469ZM196.619 103.328C196.271 103.325 196.222 103.445 196.472 103.689C197.052 104.25 197.507 104.779 197.836 105.277C198.51 106.3 198.201 108.608 197.958 110.425C197.87 111.081 197.791 111.672 197.77 112.116C197.756 112.41 197.748 112.736 197.74 113.081C197.708 114.471 197.669 116.159 197.152 117.191C196.892 117.711 196.361 117.958 195.56 117.933C192.011 117.812 188.854 117.011 186.088 115.528C185.104 115 183.108 114.915 181.925 114.958C179.238 115.053 176.556 114.701 173.879 113.902C173.334 113.738 173.065 113.388 173.071 112.852C173.071 112.684 173.131 112.54 173.251 112.42L174.078 111.593C174.167 111.504 174.172 111.411 174.093 111.312C173.741 110.888 173.551 110.593 173.522 110.428C172.686 105.852 176.516 103.438 180.48 103.143C180.803 103.121 181.749 103.06 183.317 102.962C184.388 102.899 185.307 102.72 186.074 102.425C187.3 101.95 189.277 101.213 190.612 101.028C193.255 100.664 196.136 100.596 199.257 100.824C199.549 100.845 199.827 100.992 200.042 101.239C200.256 101.486 200.392 101.817 200.426 102.173C200.426 102.189 200.423 102.205 200.417 102.221C200.059 102.981 199.629 103.36 199.129 103.357L196.619 103.328ZM176.184 111.388C175.959 111.598 175.997 111.731 176.298 111.788C178.661 112.247 181.123 112.421 183.683 112.31C184.295 112.285 184.906 112.339 185.518 112.472C185.746 112.523 185.777 112.466 185.613 112.301L185.332 112.025C185.242 111.932 185.183 111.815 185.161 111.688C184.838 109.755 184.675 107.821 184.672 105.885C184.672 105.793 184.635 105.705 184.569 105.64C184.503 105.575 184.413 105.538 184.32 105.538C182.501 105.538 180.626 105.812 178.693 106.36C177.476 106.702 176.623 107.531 176.131 108.846C176.104 108.919 176.1 108.999 176.117 109.075C176.135 109.151 176.175 109.22 176.231 109.274C176.963 109.967 176.947 110.672 176.184 111.388ZM192.566 113.441C191.748 113.473 190.52 113.47 188.882 113.432C188.195 113.416 188.173 113.532 188.816 113.779C190.501 114.419 192.293 114.927 194.191 115.304C194.71 115.409 194.986 115.179 195.018 114.615L195.255 110.509C195.255 110.5 195.243 110.485 195.217 110.466L195.099 110.386C195.035 110.338 194.999 110.354 194.989 110.433L194.968 110.58C194.786 111.884 194.719 112.363 193.83 113.152C193.636 113.319 193.215 113.416 192.566 113.441ZM169.611 120C169.568 119.902 169.544 119.796 169.541 119.688C169.539 119.581 169.558 119.474 169.596 119.374C169.635 119.274 169.694 119.182 169.768 119.104C169.842 119.027 169.931 118.965 170.029 118.921L170.581 118.674C171.071 118.458 171.662 118.525 172.224 118.86C172.786 119.195 173.274 119.771 173.579 120.461L173.779 120.903C173.931 121.245 174.033 121.605 174.08 121.962C174.127 122.319 174.118 122.666 174.054 122.984C173.989 123.302 173.871 123.584 173.704 123.814C173.538 124.044 173.328 124.217 173.085 124.325L172.534 124.567C172.336 124.655 172.111 124.661 171.909 124.584C171.707 124.506 171.543 124.351 171.455 124.154L169.611 120ZM146.2 130.18C145.408 129.451 144.908 128.892 144.699 128.502C144.665 128.44 144.645 128.37 144.643 128.298C144.64 128.227 144.654 128.156 144.684 128.091C144.713 128.026 144.757 127.969 144.813 127.924C144.868 127.879 144.933 127.848 145.003 127.832L148.524 127.062C149.481 126.853 149.896 126.264 149.77 125.294L149.746 125.128C149.616 124.149 149.072 123.74 148.116 123.902C146.544 124.162 145.31 124.428 144.413 124.7C142.712 125.213 140.835 125.85 141.139 128.098C141.37 129.815 142.276 131.238 143.857 132.366C144.251 132.646 144.71 132.798 145.15 132.793C145.589 132.789 145.98 132.629 146.248 132.342L146.357 132.223C146.991 131.542 146.939 130.861 146.2 130.18ZM82.1655 127.737C82.0103 127.668 81.8661 127.623 81.7331 127.604C81.2436 127.538 80.8539 127.252 80.5782 126.844C80.0364 126.045 80.9679 125.157 81.6808 125.043C82.175 124.967 83.0273 124.944 84.2376 124.976C84.4119 124.982 84.5608 124.924 84.6844 124.8L85.2737 124.211C85.4416 124.043 85.6111 124.043 85.7822 124.211L86.3382 124.767C86.4586 124.887 86.6044 124.949 86.7754 124.952C90.0198 124.978 93.4939 124.979 97.1976 124.957C97.8978 124.954 98.7057 125.039 99.6214 125.214C100.271 125.337 100.993 125.67 101.789 126.212C102.368 126.608 103.477 127.273 105.115 128.208C105.686 128.537 106.063 128.719 106.246 128.754C106.855 128.878 107.183 128.949 107.805 129.329C108.585 129.805 110.329 130.677 113.038 131.948C114.27 132.528 115.263 133.128 116.017 133.749C116.553 134.19 116.439 134.814 115.675 135.622C115.343 135.97 114.996 135.973 114.634 135.631C114.6 135.599 114.512 135.574 114.373 135.555C114.199 135.536 114.14 135.611 114.197 135.778C114.644 137.058 114.663 138.199 114.254 139.2C113.95 139.942 113.275 140.208 112.453 140.284C109.82 140.534 107.485 140.686 105.448 140.74C101.703 140.841 99.3663 140.91 98.438 140.944C95.1652 141.071 92.3802 141.138 90.0832 141.144C89.0598 141.147 88.2107 140.971 87.5358 140.616C86.7388 140.198 85.9076 139.262 85.1653 138.427C84.9472 138.181 84.7366 137.944 84.537 137.732C84.0432 137.205 83.4681 136.822 82.8963 136.442C82.406 136.116 81.9181 135.792 81.4859 135.379C80.884 134.809 80.5545 134.243 80.4974 133.683C80.3453 132.133 80.4737 131.053 80.8824 130.441C81.5604 129.424 82.0293 128.635 82.2891 128.075C82.362 127.923 82.3208 127.81 82.1655 127.737ZM91.2428 136.087C91.1604 134.091 91.4313 131.961 92.0554 129.695C92.3358 128.678 92.9299 128.455 93.8709 128.103C94.0008 128.052 94.0626 127.967 94.0562 127.847C94.0538 127.791 94.0302 127.74 93.9903 127.701C93.9505 127.663 93.8975 127.642 93.8424 127.642H85.901C85.8093 127.642 85.7198 127.671 85.6449 127.725C85.5699 127.778 85.5133 127.854 85.4828 127.942C85.0424 129.174 84.3913 130.403 83.5295 131.63C82.9117 132.51 82.9798 133.196 83.7339 133.687C84.8174 134.388 85.7885 135.11 86.6471 135.854C86.9898 136.153 87.2294 136.508 87.4638 136.856C87.8893 137.487 88.2977 138.093 89.2753 138.292C90.4951 138.546 91.7339 138.573 92.9917 138.373C93.1406 138.351 93.1628 138.288 93.0582 138.183L91.4709 136.596C91.3283 136.453 91.2523 136.284 91.2428 136.087ZM110.514 133.816C109.988 133.496 109.263 133.242 108.337 133.055C108.154 133.017 108.07 133.093 108.086 133.283C108.203 134.649 107.975 136.106 107.401 137.656C107.381 137.709 107.376 137.766 107.384 137.822C107.393 137.878 107.416 137.931 107.45 137.976C107.485 138.02 107.531 138.055 107.583 138.078C107.635 138.1 107.692 138.108 107.748 138.102L111.659 137.698C111.805 137.683 111.867 137.602 111.845 137.456C111.696 136.452 111.987 135.672 112.719 135.118C112.773 135.078 112.813 135.024 112.835 134.961C112.858 134.899 112.862 134.831 112.846 134.766C112.83 134.701 112.796 134.642 112.748 134.595C112.699 134.549 112.638 134.518 112.572 134.505C112.467 134.486 112.108 134.416 111.493 134.296C111.312 134.261 110.986 134.101 110.514 133.816ZM142.451 144.237C142.834 144.652 143.14 145.049 143.368 145.426C145.668 146.747 148.135 147.315 150.768 147.132C156.261 146.755 161.218 146.078 165.638 145.102C167.463 144.7 168.71 144.32 169.378 143.962C171.453 142.847 175.842 140.492 182.543 136.9C184.067 136.082 184.784 134.793 184.695 133.031C184.67 132.575 184.409 132.079 183.911 131.544C182.888 130.441 181.76 129.593 180.528 129.001C180.349 128.914 180.148 128.885 179.952 128.916C179.756 128.948 179.573 129.039 179.43 129.177C178.508 130.075 177.51 130.674 176.179 131.021C174.684 131.41 173.584 131.667 172.881 131.791C171.905 131.965 170.842 132.306 169.692 132.812C168.551 133.316 166.939 133.793 164.854 134.243C164.689 134.278 164.545 134.238 164.421 134.124C164.317 134.023 164.201 133.931 164.074 133.849C163.957 133.769 163.728 133.771 163.385 133.853C159.808 134.721 156.239 135.618 152.678 136.543C152.194 136.667 151.32 136.54 150.503 136.421C150.005 136.348 149.528 136.279 149.175 136.272C146.105 136.203 142.238 136.147 137.575 136.106C137.001 136.103 136.556 136.245 136.239 136.534C136.122 136.641 136.048 136.771 136.016 136.923C135.864 137.627 135.52 138.08 134.985 138.283C134.211 138.577 133.788 138.759 133.716 138.829C132.968 139.548 133.101 140.592 134.115 141.961C134.528 140.759 135.897 140.141 136.6 141.429C136.838 141.866 137.049 142.208 137.232 142.455L139.414 143.287C140.032 143.249 140.63 143.308 141.21 143.463C141.67 143.586 142.083 143.845 142.451 144.237ZM128.835 134.138C128.891 133.975 129.01 133.841 129.165 133.765C129.32 133.69 129.499 133.678 129.662 133.734L130.056 133.872C130.517 134.031 130.843 134.522 130.961 135.237C131.08 135.952 130.982 136.832 130.688 137.684L130.223 139.029C129.93 139.88 129.466 140.634 128.933 141.125C128.401 141.616 127.842 141.804 127.381 141.647L126.986 141.51C126.823 141.453 126.689 141.335 126.613 141.18C126.537 141.025 126.526 140.846 126.582 140.683L128.835 134.138ZM63.8638 159.588C63.7972 160.456 62.8927 162.012 61.1501 164.255C61.018 164.426 60.9554 164.642 60.9737 164.865C60.9921 165.087 61.0901 165.301 61.2499 165.467C61.2531 165.47 61.2594 165.478 61.2689 165.491C61.5414 165.836 61.8614 165.831 62.2289 165.477C64.1331 163.648 65.1992 161.64 65.4273 159.45C65.8329 155.544 65.9897 151.316 65.8978 146.766C65.8661 145.242 65.703 144.111 65.4083 143.373C64.9204 142.14 64.5671 141 64.3485 139.951C64.2408 139.425 63.9208 139.198 63.3885 139.271L63.3119 139.283L63.2962 139.285L63.2334 139.295C63.2144 139.298 63.2044 139.3 63.2032 139.3C62.6741 139.385 62.4792 139.685 62.6186 140.198C62.9133 141.266 63.2174 142.207 63.5311 143.021C64.2345 144.846 64.4578 146.776 64.4341 148.396C64.3834 151.58 64.1933 155.311 63.8638 159.588ZM101.974 164.887C100.477 163.794 95.4867 159.949 97.5731 158.177C98.4333 157.445 99.0558 157.967 99.6024 158.78C100.394 159.962 101.408 161.015 102.644 161.941C105.074 163.762 107.21 165.242 109.05 166.379C110.482 167.263 112.781 168.418 115.946 169.844C116.279 169.993 119.376 171.514 125.237 174.406C127.037 175.297 129.73 176.085 133.316 176.773C133.988 176.903 136.364 177.186 140.445 177.624C142.806 177.877 145.301 177.98 147.93 177.933C148.722 177.917 149.182 178.319 149.309 179.14V179.192C149.302 179.971 148.93 180.386 148.192 180.437C145.34 180.63 143.149 180.643 141.619 180.475C138.647 180.146 136.198 179.916 134.272 179.786C133.062 179.706 131.863 179.376 130.737 179.066H130.736C130.191 178.916 129.662 178.77 129.158 178.66C127.97 178.403 126.948 178.089 126.093 177.719C125.354 177.402 124.379 176.936 123.165 176.322C123.032 176.255 121.145 175.325 117.505 173.532C117.489 173.522 115.987 172.855 113 171.531C110.468 170.409 108.059 169.069 105.771 167.51C103.712 166.104 102.446 165.229 101.974 164.887ZM45.6302 198.74C45.3165 199.16 45.0173 199.561 44.6353 199.899C44.5117 200.006 44.3675 200.062 44.2028 200.065C42.8753 200.084 42.0388 200.097 41.6935 200.103C41.2372 200.113 40.9125 200.201 40.7192 200.369C40.0824 200.93 39.8067 201.567 40.5006 202.251C40.7826 202.53 41.1026 202.687 41.4606 202.722C41.939 202.766 42.9402 202.768 44.4642 202.726C45.1517 202.707 45.7236 202.532 46.1798 202.199C46.9999 201.598 47.6899 200.696 48.3378 199.85C48.7186 199.353 49.0848 198.874 49.4543 198.487C50.6186 197.275 51.6214 195.94 52.0776 194.88C53.3988 191.81 55.0669 188.802 58.1085 187.134C59.3854 186.433 61.44 185.687 64.2725 184.895C64.7161 184.772 65.1137 184.401 65.4654 183.783C65.5446 183.644 65.5636 183.496 65.5224 183.341C65.2499 182.324 64.5861 181.942 63.5311 182.196C62.7295 182.386 60.8127 183.059 57.7806 184.216C56.4499 184.726 55.4265 185.332 54.7105 186.036C53.5572 187.164 52.5719 188.284 51.7545 189.396C51.3331 189.972 50.8673 190.796 50.3572 191.867L50.326 191.933C49.2376 194.226 48.5848 195.602 46.6028 197.57C46.2167 197.954 45.9174 198.355 45.6302 198.74ZM130.836 201.163C128.868 200.957 127.257 200.179 126.002 198.829C124.957 197.708 124.301 196.87 124.035 196.315C123.848 195.932 123.369 194.644 122.6 192.451C122.441 191.992 122.253 191.609 122.034 191.301C121.956 191.193 121.91 191.065 121.902 190.931C121.895 190.797 121.926 190.664 121.991 190.546C122.245 190.083 122.592 189.953 123.032 190.156C123.216 190.238 123.474 190.498 123.807 190.935C123.997 191.186 124.141 191.487 124.239 191.838C124.841 194.018 125.316 195.379 125.665 195.921C126.4 197.071 127.33 198.009 128.455 198.734C129.006 199.089 129.695 199.32 130.522 199.428C131.032 199.491 131.357 199.772 131.496 200.269C131.528 200.374 131.541 200.448 131.534 200.493C131.484 200.984 131.251 201.207 130.836 201.163ZM96.3137 217.283C96.5893 217.564 96.903 217.659 97.2974 217.568C97.459 217.533 97.6063 217.564 97.7394 217.659C97.9911 217.836 98.2716 217.946 98.5592 218.059C99.0806 218.264 99.6252 218.477 100.063 219.118C100.209 219.33 100.282 219.664 100.282 220.12C100.285 221.28 100.795 222.287 101.812 223.143C101.92 223.235 102.058 223.285 102.202 223.285H112.258C112.379 223.285 112.496 223.247 112.593 223.175C112.69 223.103 112.761 223.002 112.795 222.886C113.21 221.524 113.922 220.109 114.929 218.642C116.193 216.808 117.434 216.38 119.653 216.257C121.057 216.177 123.018 216.154 125.537 216.185C125.872 216.188 126.109 216.032 126.245 215.715L126.321 215.544C126.358 215.458 126.374 215.365 126.369 215.272C126.364 215.18 126.337 215.09 126.291 215.012C126.246 214.933 126.182 214.868 126.106 214.821C126.03 214.775 125.944 214.749 125.855 214.745C123.282 214.644 121.028 214.639 119.092 214.731C116.84 214.836 115.078 215.732 113.808 217.421C112.882 218.65 112.068 220.027 111.365 221.551C111.289 221.712 111.162 221.793 110.985 221.793L103.01 221.76C102.939 221.76 102.866 221.741 102.797 221.705C102.728 221.669 102.664 221.616 102.611 221.551C102.231 221.09 101.812 220.548 101.784 219.788C101.736 218.539 101.088 217.532 99.84 216.765C99.3802 216.484 98.8202 216.515 98.3518 216.542C98.2887 216.546 98.2268 216.549 98.1675 216.552C98.1166 216.554 98.0672 216.556 98.0198 216.556C97.8646 216.556 97.7378 216.496 97.6396 216.375C96.3976 214.864 94.7216 213.82 92.6115 213.244C90.7913 212.745 86.9941 212.236 85.2499 213.714C84.9299 213.983 84.8887 214.291 85.1263 214.636C85.196 214.741 85.2483 214.805 85.2832 214.831C85.676 215.116 86.0309 215.129 86.3477 214.869C86.7374 214.546 87.2285 214.376 87.821 214.36C91.257 214.275 93.8424 214.755 96.3137 217.283Z" fill="#010101"/>
</g>
<defs>
<clipPath id="clip0_7_6367">
<rect width="240" height="240" fill="white"/>
</clipPath>
</defs>
</svg>
